CD_DA


// Track 1
TRACK AUDIO
NO COPY
NO PRE_EMPHASIS
TWO_CHANNEL_AUDIO
ISRC "000000000000"
SILENCE 00:00:12
FILE "data.wav" 0 02:09:45
START 00:00:12


// Track 2
TRACK AUDIO
NO COPY
NO PRE_EMPHASIS
TWO_CHANNEL_AUDIO
FILE "data.wav" 02:09:45 01:47:45


// Track 3
TRACK AUDIO
NO COPY
NO PRE_EMPHASIS
TWO_CHANNEL_AUDIO
ISRC "P00000000000"
FILE "data.wav" 03:57:15 01:42:30


// Track 4
TRACK AUDIO
NO COPY
NO PRE_EMPHASIS
TWO_CHANNEL_AUDIO
FILE "data.wav" 05:39:45 02:38:25

